G04 EAGLE Gerber RS-274X export*
G75*
%MOMM*%
%FSLAX34Y34*%
%LPD*%
%INSolderpaste Top*%
%IPPOS*%
%AMOC8*
5,1,8,0,0,1.08239X$1,22.5*%
G01*
%ADD10R,1.475000X0.300000*%
%ADD11R,0.300000X1.475000*%


D10*
X351446Y553410D03*
X351446Y558410D03*
X351446Y563410D03*
X351446Y568410D03*
X351446Y573410D03*
X351446Y578410D03*
X351446Y583410D03*
X351446Y588410D03*
X351446Y593410D03*
X351446Y598410D03*
X351446Y603410D03*
X351446Y608410D03*
X351446Y613410D03*
X351446Y618410D03*
X351446Y623410D03*
X351446Y628410D03*
X351446Y633410D03*
X351446Y638410D03*
X351446Y643410D03*
X351446Y648410D03*
X351446Y653410D03*
X351446Y658410D03*
X351446Y663410D03*
X351446Y668410D03*
X351446Y673410D03*
D11*
X334066Y690790D03*
X329066Y690790D03*
X324066Y690790D03*
X319066Y690790D03*
X314066Y690790D03*
X309066Y690790D03*
X304066Y690790D03*
X299066Y690790D03*
X294066Y690790D03*
X289066Y690790D03*
X284066Y690790D03*
X279066Y690790D03*
X274066Y690790D03*
X269066Y690790D03*
X264066Y690790D03*
X259066Y690790D03*
X254066Y690790D03*
X249066Y690790D03*
X244066Y690790D03*
X239066Y690790D03*
X234066Y690790D03*
X229066Y690790D03*
X224066Y690790D03*
X219066Y690790D03*
X214066Y690790D03*
D10*
X196686Y673410D03*
X196686Y668410D03*
X196686Y663410D03*
X196686Y658410D03*
X196686Y653410D03*
X196686Y648410D03*
X196686Y643410D03*
X196686Y638410D03*
X196686Y633410D03*
X196686Y628410D03*
X196686Y623410D03*
X196686Y618410D03*
X196686Y613410D03*
X196686Y608410D03*
X196686Y603410D03*
X196686Y598410D03*
X196686Y593410D03*
X196686Y588410D03*
X196686Y583410D03*
X196686Y578410D03*
X196686Y573410D03*
X196686Y568410D03*
X196686Y563410D03*
X196686Y558410D03*
X196686Y553410D03*
D11*
X214066Y536030D03*
X219066Y536030D03*
X224066Y536030D03*
X229066Y536030D03*
X234066Y536030D03*
X239066Y536030D03*
X244066Y536030D03*
X249066Y536030D03*
X254066Y536030D03*
X259066Y536030D03*
X264066Y536030D03*
X269066Y536030D03*
X274066Y536030D03*
X279066Y536030D03*
X284066Y536030D03*
X289066Y536030D03*
X294066Y536030D03*
X299066Y536030D03*
X304066Y536030D03*
X309066Y536030D03*
X314066Y536030D03*
X319066Y536030D03*
X324066Y536030D03*
X329066Y536030D03*
X334066Y536030D03*
M02*
