<?xml version="1.0" encoding="UTF-8" standalone="no"?>
<svg
   xmlns:dc="http://purl.org/dc/elements/1.1/"
   xmlns:cc="http://creativecommons.org/ns#"
   xmlns:rdf="http://www.w3.org/1999/02/22-rdf-syntax-ns#"
   xmlns:svg="http://www.w3.org/2000/svg"
   xmlns="http://www.w3.org/2000/svg"
   xmlns:sodipodi="http://sodipodi.sourceforge.net/DTD/sodipodi-0.dtd"
   xmlns:inkscape="http://www.inkscape.org/namespaces/inkscape"
   width="39px"
   height="12px"
   viewBox="0 0 39 12"
   version="1.1"
   id="svg897"
   sodipodi:docname="samacsys.svg"
   inkscape:version="0.92.3 (2405546, 2018-03-11)">
  <metadata
     id="metadata901">
    <rdf:RDF>
      <cc:Work
         rdf:about="">
        <dc:format>image/svg+xml</dc:format>
        <dc:type
           rdf:resource="http://purl.org/dc/dcmitype/StillImage" />
        <dc:title>LTspice</dc:title>
      </cc:Work>
    </rdf:RDF>
  </metadata>
  <sodipodi:namedview
     pagecolor="#ffffff"
     bordercolor="#666666"
     borderopacity="1"
     objecttolerance="10"
     gridtolerance="10"
     guidetolerance="10"
     inkscape:pageopacity="0"
     inkscape:pageshadow="2"
     inkscape:window-width="2400"
     inkscape:window-height="1321"
     id="namedview899"
     showgrid="false"
     inkscape:zoom="17.384615"
     inkscape:cx="6.0134724"
     inkscape:cy="6.5864712"
     inkscape:window-x="2391"
     inkscape:window-y="4"
     inkscape:window-maximized="1"
     inkscape:current-layer="svg897" />
  <!-- Generator: Sketch 50.2 (55047) - http://www.bohemiancoding.com/sketch -->
  <title
     id="title867">LTspice</title>
  <desc
     id="desc869">Created with Sketch.</desc>
  <defs
     id="defs873">
    <path
       d="M1.10658292,4.83230769 L3.04294656,4.83230769 L3.04294656,5.53846154 L0.24749201,5.53846154 L0.24749201,0.692307692 L1.10658292,0.692307692 L1.10658292,4.83230769 Z M6.40431019,0.692307692 L6.40431019,1.36384615 L5.06794656,1.36384615 L5.06794656,5.53846154 L4.20885565,5.53846154 L4.20885565,1.36384615 L2.86567383,1.36384615 L2.86567383,0.692307692 L6.40431019,0.692307692 Z M8.77021928,5.62846154 C7.57021928,5.62846154 6.8884011,4.90153846 6.8884011,3.80769231 L6.8884011,2.53384615 C6.8884011,1.35 7.61112837,0.602307692 8.80431019,0.602307692 C9.47931019,0.602307692 9.90203746,0.830769231 10.2702193,1.12846154 L9.83385565,1.62692308 C9.56112837,1.42615385 9.26794656,1.27384615 8.83158292,1.27384615 C8.13612837,1.27384615 7.74749201,1.71 7.74749201,2.48538462 L7.74749201,3.79384615 C7.74749201,4.55538462 8.09521928,4.95692308 8.79067383,4.95692308 C9.26112837,4.95692308 9.59521928,4.79076923 9.86794656,4.60384615 L10.2293102,5.12307692 C9.90885565,5.37923077 9.39749201,5.62846154 8.77021928,5.62846154 Z"
       id="path-1" />
    <path
       d="M2.21585399,5.34302387 C1.33999192,5.34302387 0.78826778,5.06291777 0.408957435,4.70578249 L0.843440194,4.18058355 C1.25033675,4.453687 1.51930226,4.64275862 2.17447468,4.64275862 C2.8848195,4.64275862 3.19516433,4.28562334 3.19516433,3.95649867 L3.19516433,3.86546419 C3.19516433,3.51533156 3.02964709,3.34026525 2.4572333,3.15119363 L1.74688847,2.91310345 C0.933095366,2.64700265 0.608957435,2.2128382 0.608957435,1.67363395 L0.608957435,1.51257294 C0.608957435,0.847320955 1.22964709,0.259098143 2.33309537,0.259098143 C3.06412985,0.259098143 3.59516433,0.490185676 4.02964709,0.896339523 L3.60206088,1.37952255 C3.16068157,1.04339523 2.85033675,0.931352785 2.36757812,0.931352785 C1.73999192,0.931352785 1.47792295,1.23246684 1.47792295,1.50557029 L1.47792295,1.62461538 C1.47792295,1.86970822 1.69861261,2.07278515 2.25033675,2.24785146 L2.89171606,2.45793103 C3.55378502,2.66801061 4.0572333,3.02514589 4.0572333,3.77442971 L4.0572333,3.96350133 C4.0572333,4.78981432 3.29861261,5.34302387 2.21585399,5.34302387 Z M6.76068157,0.350132626 C7.80206088,0.350132626 8.47792295,0.847320955 8.47792295,1.75066313 L8.47792295,2.15681698 C8.47792295,3.0531565 7.74688847,3.57135279 6.64344019,3.57135279 L6.03654364,3.57135279 L6.03654364,5.25198939 L5.16757812,5.25198939 L5.16757812,0.350132626 L6.76068157,0.350132626 Z M7.60895744,2.10779841 L7.60895744,1.79267905 C7.60895744,1.26047745 7.26412985,1.02238727 6.71930226,1.02238727 L6.03654364,1.02238727 L6.03654364,2.89909814 L6.61585399,2.89909814 C7.23654364,2.89909814 7.60895744,2.66801061 7.60895744,2.10779841 Z M11.3124057,1.02938992 L10.6917161,1.02938992 L10.6917161,4.5727321 L11.3124057,4.5727321 L11.3124057,5.25198939 L9.20206088,5.25198939 L9.20206088,4.5727321 L9.82275054,4.5727321 L9.82275054,1.02938992 L9.20206088,1.02938992 L9.20206088,0.350132626 L11.3124057,0.350132626 L11.3124057,1.02938992 Z M14.1468885,5.34302387 C12.9330954,5.34302387 12.2434402,4.60774536 12.2434402,3.50132626 L12.2434402,2.2128382 C12.2434402,1.01538462 12.9744747,0.259098143 14.1813712,0.259098143 C14.8641298,0.259098143 15.2917161,0.490185676 15.6641298,0.791299735 L15.2227505,1.29549072 C14.9468885,1.09241379 14.6503367,0.938355438 14.2089574,0.938355438 C13.5055092,0.938355438 13.1124057,1.37952255 13.1124057,2.16381963 L13.1124057,3.48732095 C13.1124057,4.25761273 13.4641298,4.66376658 14.1675781,4.66376658 C14.6434402,4.66376658 14.9813712,4.49570292 15.2572333,4.3066313 L15.6227505,4.83183024 C15.2986126,5.09092838 14.7813712,5.34302387 14.1468885,5.34302387 Z M19.353785,1.02938992 L17.4020609,1.02938992 L17.4020609,2.42291777 L19.2020609,2.42291777 L19.2020609,3.10217507 L17.4020609,3.10217507 L17.4020609,4.56572944 L19.353785,4.56572944 L19.353785,5.25198939 L16.5330954,5.25198939 L16.5330954,0.350132626 L19.353785,0.350132626 L19.353785,1.02938992 Z"
       id="path-2" />
  </defs>
  <text
     xml:space="preserve"
     style="font-style:normal;font-weight:normal;font-size:40px;line-height:1.25;font-family:sans-serif;letter-spacing:0px;word-spacing:0px;fill:#000000;fill-opacity:1;stroke:none"
     x="2.6132812"
     y="5.4424777"
     id="text1451"><tspan
       sodipodi:role="line"
       id="tspan1449"
       x="2.6132812"
       y="5.4424777"
       style="font-style:normal;font-variant:normal;font-weight:normal;font-stretch:normal;font-size:8px;font-family:'Eras Medium ITC';-inkscape-font-specification:'Eras Medium ITC'">SamacSys</tspan></text>
  <text
     xml:space="preserve"
     style="font-style:normal;font-weight:normal;font-size:40px;line-height:1.25;font-family:sans-serif;letter-spacing:0px;word-spacing:0px;fill:#000000;fill-opacity:1;stroke:none"
     x="2.5195312"
     y="10.770567"
     id="text1451-4"><tspan
       sodipodi:role="line"
       id="tspan1449-8"
       x="2.5195312"
       y="10.770567"
       style="font-style:normal;font-variant:normal;font-weight:normal;font-stretch:normal;font-size:5.33333349px;font-family:'Eras Medium ITC';-inkscape-font-specification:'Eras Medium ITC'">PCB Library</tspan></text>
</svg>
