M48
;GenerationSoftware,Autodesk,EAGLE,9.6.1*%
;CreationDate,2020-06-13T13:04:12Z*%
FMAT,2
ICI,OFF
METRIC,TZ,000.000
T11C0.600
T10C0.750
T9C0.800
T8C0.900
T7C0.990
T6C1.000
T5C1.016
T4C1.320
T3C2.520
T2C3.175
T1C3.630
%
G90
M71
T1
X75565Y10795
X66675Y10795
X75819Y29845
X67056Y29845
T2
X5080Y5080
X8890Y90805
X82550Y90805
X85217Y4953
T3
X58992Y14152
X58992Y7292
X52132Y7292
X52132Y14152
X59119Y33202
X59119Y26342
X52259Y26342
X52259Y33202
T4
X55562Y10722
X55689Y29772
T5
X4623Y70129
X3810Y26848
X85293Y26568
X3886Y23597
X6426Y23597
X2083Y70129
X2032Y78588
X21133Y14783
X23673Y14783
X26213Y14783
X28753Y14783
X31293Y14783
X33833Y14783
X36373Y14783
X6350Y26848
X6426Y16916
X3886Y16916
X6426Y20218
X3886Y20218
X87833Y26568
X4572Y78588
T6
X13970Y88265
X77470Y90805
X13970Y83185
X13970Y85725
X16510Y83185
X16510Y85725
X19050Y83185
X19050Y85725
X21590Y83185
X21590Y85725
X24130Y83185
X24130Y85725
X26670Y83185
X26670Y85725
X29210Y83185
X29210Y85725
X31750Y83185
X31750Y85725
X34290Y83185
X34290Y85725
X36830Y83185
X36830Y85725
X39370Y83185
X39370Y85725
X41910Y83185
X41910Y85725
X44450Y83185
X44450Y85725
X46990Y83185
X46990Y85725
X49530Y83185
X49530Y85725
X52070Y83185
X52070Y85725
X54610Y83185
X54610Y85725
X57150Y83185
X57150Y85725
X59690Y83185
X59690Y85725
X62230Y83185
X62230Y85725
X64770Y83185
X64770Y85725
X77470Y88265
X67310Y85725
X69850Y83185
X69850Y85725
X72390Y83185
X72390Y85725
X74930Y83185
X74930Y85725
X77470Y83185
X77470Y85725
X67310Y83185
X13970Y90805
X16510Y88265
X16510Y90805
X19050Y88265
X19050Y90805
X21590Y88265
X21590Y90805
X24130Y88265
X24130Y90805
X26670Y88265
X26670Y90805
X29210Y88265
X29210Y90805
X31750Y88265
X31750Y90805
X34290Y88265
X34290Y90805
X36830Y88265
X36830Y90805
X39370Y88265
X39370Y90805
X41910Y88265
X41910Y90805
X44450Y88265
X44450Y90805
X46990Y88265
X46990Y90805
X49530Y88265
X49530Y90805
X52070Y88265
X52070Y90805
X54610Y88265
X54610Y90805
X57150Y88265
X57150Y90805
X59690Y88265
X59690Y90805
X62230Y88265
X62230Y90805
X64770Y88265
X64770Y90805
X67310Y88265
X67310Y90805
X69850Y88265
X69850Y90805
X72390Y88265
X72390Y90805
X74930Y88265
X74930Y90805
T7
X24892Y26412
X31392Y30912
X31392Y26412
X24892Y30912
T8
X23114Y71120
X68580Y64770
X15875Y64897
X33020Y73787
X31877Y72390
X43561Y67818
X27432Y61341
X20193Y74930
X47879Y49363
X56515Y49276
X27305Y49911
X15494Y59563
X49276Y55667
X9525Y57277
X14478Y53975
X9525Y55626
X14478Y62230
X45466Y71334
X54610Y73152
X45593Y68326
X47879Y45045
X49403Y46101
X47879Y47204
X11303Y59055
X54610Y75398
X43942Y57785
X28956Y49911
X22098Y65024
X35179Y69088
X5374Y45848
X7874Y45848
X10374Y45848
X5374Y49148
X7874Y49148
X10374Y49148
X53594Y54610
X21971Y74930
X54483Y62952
X46657Y65580
X24003Y49911
X41163Y66914
X25654Y49911
X49276Y43815
T9
X36220Y40411
X20320Y40411
T10
X29123Y47523
X34123Y47523
X20868Y47498
X25868Y47498
X82550Y48220
X82550Y43220
X78740Y48220
X78740Y43220
X74930Y48220
X74930Y43220
X71120Y48220
X71120Y43220
X66040Y48220
X66040Y43220
X62230Y48220
X62230Y43220
X58420Y48220
X58420Y43220
X54610Y48220
X54610Y43220
T11
X57150Y58420
X59690Y58420
X57150Y55880
X59690Y55880
X62230Y55880
X64770Y55880
X67310Y55880
X69850Y55880
X72390Y55880
X74930Y55880
X72390Y58420
X80010Y55880
X80010Y58420
X77470Y58420
X77470Y60960
X80010Y60960
X80010Y63500
X77470Y63500
X77470Y66040
X80010Y66040
X80010Y68580
X77470Y68580
X77470Y71120
X80010Y71120
X80010Y73660
X80010Y76200
X77470Y76200
X77470Y73660
X74930Y73660
X74930Y76200
X72390Y76200
X72390Y73660
X69850Y73660
X69850Y76200
X67310Y76200
X67310Y73660
X64770Y73660
X64770Y76200
X62230Y76200
X62230Y73660
X59690Y73660
X59690Y76200
X57150Y76200
X57150Y73660
X57150Y53340
X59690Y53340
X62230Y53340
X64770Y53340
X67310Y53340
X69850Y53340
X72390Y53340
X74930Y53340
X77470Y53340
X80010Y53340
X57150Y60960
X59690Y60960
X59690Y63500
X57150Y63500
X57150Y66040
X59690Y66040
X59690Y68580
X57150Y68580
X57150Y71120
X59690Y71120
X62230Y68580
X62230Y71120
X64770Y71120
X67310Y71120
X69850Y71120
X72390Y71120
X69850Y58420
X67310Y58420
X64770Y58420
X62230Y58420
X62230Y60960
X62230Y63500
X62230Y66040
X74930Y71120
X74930Y68580
X74930Y66040
X74930Y63500
X74930Y60960
X74930Y58420
X77470Y55880
M30